<?xml version="1.0" standalone="no"?>
<!DOCTYPE svg PUBLIC "-//W3C//DTD SVG 20010904//EN"
 "http://www.w3.org/TR/2001/REC-SVG-20010904/DTD/svg10.dtd">
<svg version="1.0" xmlns="http://www.w3.org/2000/svg"
 width="50.000000pt" height="50.000000pt" viewBox="0 0 50.000000 50.000000"
 preserveAspectRatio="xMidYMid meet">

<g transform="translate(0.000000,50.000000) scale(0.100000,-0.100000)"
fill="#000000" stroke="none">
<path d="M305 438 c-3 -29 -8 -65 -11 -80 l-6 -28 -102 0 c-91 0 -105 2 -121
20 -22 25 -58 23 -63 -3 -2 -11 5 -29 17 -41 18 -19 21 -36 23 -145 3 -105 6
-126 21 -135 27 -17 51 4 55 48 l3 38 29 -46 c30 -46 55 -57 78 -34 18 18 15
36 -18 89 l-30 49 65 0 64 0 3 -66 c2 -51 7 -70 21 -78 34 -22 51 4 59 90 17
203 18 204 48 204 23 0 31 7 44 42 20 48 19 49 -64 75 -30 9 -64 25 -76 35
-11 10 -23 18 -26 18 -3 0 -9 -24 -13 -52z m100 -17 c59 -16 67 -24 59 -54 -5
-23 -12 -27 -40 -27 -30 0 -34 -3 -34 -25 0 -30 0 -30 -45 -8 -35 17 -35 17
-29 67 8 73 11 78 31 67 10 -5 36 -14 58 -20z m-350 -91 c16 -18 31 -20 131
-20 97 0 120 -3 160 -22 45 -22 46 -24 39 -58 -5 -19 -11 -69 -14 -110 -5 -57
-10 -75 -21 -75 -12 0 -16 16 -18 73 l-3 72 -114 0 -114 0 -3 -72 c-2 -57 -6
-73 -18 -73 -12 0 -15 22 -18 126 -2 111 -5 129 -22 144 -11 10 -20 22 -20 27
0 14 16 9 35 -12z m135 -216 c22 -38 29 -59 22 -66 -15 -15 -27 -4 -61 56 -36
63 -37 66 -12 66 13 0 30 -18 51 -56z"/>
<path d="M380 395 c0 -8 7 -15 15 -15 8 0 15 7 15 15 0 8 -7 15 -15 15 -8 0
-15 -7 -15 -15z"/>
</g>
</svg>
